<svg id="visual" viewBox="0 0 900 600" width="900" height="600" xmlns="http://www.w3.org/2000/svg" xmlns:xlink="http://www.w3.org/1999/xlink" version="1.1"><g stroke-width="1" stroke-linejoin="bevel"><path d="M499 298L582 227L462 220Z" fill="#070909" stroke="#070909"></path><path d="M499 298L614 325L582 227Z" fill="#1e1f1f" stroke="#1e1f1f"></path><path d="M582 227L484 103L462 220Z" fill="#0b0d0d" stroke="#0b0d0d"></path><path d="M718 205L587 112L582 227Z" fill="#0f1010" stroke="#0f1010"></path><path d="M582 227L587 112L484 103Z" fill="#0f1010" stroke="#0f1010"></path><path d="M394 412L518 389L499 298Z" fill="#000000" stroke="#000000"></path><path d="M499 298L518 389L614 325Z" fill="#191a1a" stroke="#191a1a"></path><path d="M518 389L612 371L614 325Z" fill="#070909" stroke="#070909"></path><path d="M437 86L362 206L462 220Z" fill="#151616" stroke="#151616"></path><path d="M462 220L360 282L499 298Z" fill="#000000" stroke="#000000"></path><path d="M362 206L360 282L462 220Z" fill="#1e1f1f" stroke="#1e1f1f"></path><path d="M508 0L437 86L484 103Z" fill="#191a1a" stroke="#191a1a"></path><path d="M484 103L437 86L462 220Z" fill="#121313" stroke="#121313"></path><path d="M730 285L582 227L614 325Z" fill="#0b0d0d" stroke="#0b0d0d"></path><path d="M730 285L718 205L582 227Z" fill="#0f1010" stroke="#0f1010"></path><path d="M612 371L730 285L614 325Z" fill="#000000" stroke="#000000"></path><path d="M360 282L394 412L499 298Z" fill="#151616" stroke="#151616"></path><path d="M595 478L660 426L612 371Z" fill="#0f1010" stroke="#0f1010"></path><path d="M612 371L660 426L730 285Z" fill="#1e1f1f" stroke="#1e1f1f"></path><path d="M595 478L612 371L518 389Z" fill="#0b0d0d" stroke="#0b0d0d"></path><path d="M437 86L292 171L362 206Z" fill="#121313" stroke="#121313"></path><path d="M362 206L282 277L360 282Z" fill="#121313" stroke="#121313"></path><path d="M360 282L266 361L394 412Z" fill="#0f1010" stroke="#0f1010"></path><path d="M567 0L484 103L587 112Z" fill="#121313" stroke="#121313"></path><path d="M567 0L508 0L484 103Z" fill="#151616" stroke="#151616"></path><path d="M437 86L267 103L292 171Z" fill="#0b0d0d" stroke="#0b0d0d"></path><path d="M292 171L282 277L362 206Z" fill="#0b0d0d" stroke="#0b0d0d"></path><path d="M730 285L760 201L718 205Z" fill="#151616" stroke="#151616"></path><path d="M718 205L721 88L587 112Z" fill="#121313" stroke="#121313"></path><path d="M691 0L567 0L587 112Z" fill="#030505" stroke="#030505"></path><path d="M510 537L595 478L518 389Z" fill="#000000" stroke="#000000"></path><path d="M783 129L721 88L718 205Z" fill="#030505" stroke="#030505"></path><path d="M660 426L768 324L730 285Z" fill="#1c1d1d" stroke="#1c1d1d"></path><path d="M730 285L768 324L760 201Z" fill="#1e1f1f" stroke="#1e1f1f"></path><path d="M508 0L412 0L437 86Z" fill="#1c1d1d" stroke="#1c1d1d"></path><path d="M218 332L266 361L282 277Z" fill="#070909" stroke="#070909"></path><path d="M282 277L266 361L360 282Z" fill="#0f1010" stroke="#0f1010"></path><path d="M760 201L783 129L718 205Z" fill="#0b0d0d" stroke="#0b0d0d"></path><path d="M900 230L783 129L760 201Z" fill="#121313" stroke="#121313"></path><path d="M412 0L267 103L437 86Z" fill="#151616" stroke="#151616"></path><path d="M292 171L224 199L282 277Z" fill="#171818" stroke="#171818"></path><path d="M792 0L691 0L721 88Z" fill="#171818" stroke="#171818"></path><path d="M721 88L691 0L587 112Z" fill="#121313" stroke="#121313"></path><path d="M394 412L510 537L518 389Z" fill="#0b0d0d" stroke="#0b0d0d"></path><path d="M374 539L510 537L394 412Z" fill="#1e1f1f" stroke="#1e1f1f"></path><path d="M267 103L224 199L292 171Z" fill="#191a1a" stroke="#191a1a"></path><path d="M224 199L218 332L282 277Z" fill="#030505" stroke="#030505"></path><path d="M266 361L289 472L394 412Z" fill="#0f1010" stroke="#0f1010"></path><path d="M660 426L798 400L768 324Z" fill="#030505" stroke="#030505"></path><path d="M768 324L900 230L760 201Z" fill="#070909" stroke="#070909"></path><path d="M813 471L798 400L660 426Z" fill="#171818" stroke="#171818"></path><path d="M734 533L660 426L595 478Z" fill="#1e1f1f" stroke="#1e1f1f"></path><path d="M219 474L289 472L266 361Z" fill="#121313" stroke="#121313"></path><path d="M289 472L374 539L394 412Z" fill="#070909" stroke="#070909"></path><path d="M267 103L188 123L224 199Z" fill="#000000" stroke="#000000"></path><path d="M224 199L84 278L218 332Z" fill="#0b0d0d" stroke="#0b0d0d"></path><path d="M190 0L188 123L267 103Z" fill="#191a1a" stroke="#191a1a"></path><path d="M412 0L260 0L267 103Z" fill="#0f1010" stroke="#0f1010"></path><path d="M413 600L518 600L510 537Z" fill="#191a1a" stroke="#191a1a"></path><path d="M510 537L561 600L595 478Z" fill="#0f1010" stroke="#0f1010"></path><path d="M900 94L792 0L783 129Z" fill="#0f1010" stroke="#0f1010"></path><path d="M783 129L792 0L721 88Z" fill="#000000" stroke="#000000"></path><path d="M726 600L734 533L595 478Z" fill="#1c1d1d" stroke="#1c1d1d"></path><path d="M518 600L561 600L510 537Z" fill="#121313" stroke="#121313"></path><path d="M734 533L813 471L660 426Z" fill="#1c1d1d" stroke="#1c1d1d"></path><path d="M900 331L900 230L768 324Z" fill="#121313" stroke="#121313"></path><path d="M129 388L190 412L218 332Z" fill="#121313" stroke="#121313"></path><path d="M218 332L190 412L266 361Z" fill="#070909" stroke="#070909"></path><path d="M313 600L413 600L374 539Z" fill="#1e1f1f" stroke="#1e1f1f"></path><path d="M313 600L374 539L289 472Z" fill="#1e1f1f" stroke="#1e1f1f"></path><path d="M374 539L413 600L510 537Z" fill="#070909" stroke="#070909"></path><path d="M900 331L768 324L798 400Z" fill="#171818" stroke="#171818"></path><path d="M190 412L219 474L266 361Z" fill="#171818" stroke="#171818"></path><path d="M900 380L900 331L798 400Z" fill="#1e1f1f" stroke="#1e1f1f"></path><path d="M900 469L900 380L798 400Z" fill="#0b0d0d" stroke="#0b0d0d"></path><path d="M900 230L900 94L783 129Z" fill="#151616" stroke="#151616"></path><path d="M260 0L190 0L267 103Z" fill="#151616" stroke="#151616"></path><path d="M116 120L112 174L188 123Z" fill="#171818" stroke="#171818"></path><path d="M188 123L112 174L224 199Z" fill="#030505" stroke="#030505"></path><path d="M734 533L824 600L813 471Z" fill="#070909" stroke="#070909"></path><path d="M813 471L900 469L798 400Z" fill="#0f1010" stroke="#0f1010"></path><path d="M561 600L726 600L595 478Z" fill="#000000" stroke="#000000"></path><path d="M238 600L313 600L289 472Z" fill="#191a1a" stroke="#191a1a"></path><path d="M190 412L81 483L219 474Z" fill="#191a1a" stroke="#191a1a"></path><path d="M219 474L238 600L289 472Z" fill="#030505" stroke="#030505"></path><path d="M84 278L129 388L218 332Z" fill="#070909" stroke="#070909"></path><path d="M190 0L116 120L188 123Z" fill="#000000" stroke="#000000"></path><path d="M112 174L84 278L224 199Z" fill="#030505" stroke="#030505"></path><path d="M0 223L84 278L112 174Z" fill="#121313" stroke="#121313"></path><path d="M824 600L900 469L813 471Z" fill="#070909" stroke="#070909"></path><path d="M900 94L900 0L792 0Z" fill="#1c1d1d" stroke="#1c1d1d"></path><path d="M81 600L238 600L219 474Z" fill="#000000" stroke="#000000"></path><path d="M726 600L824 600L734 533Z" fill="#191a1a" stroke="#191a1a"></path><path d="M0 388L81 483L129 388Z" fill="#070909" stroke="#070909"></path><path d="M129 388L81 483L190 412Z" fill="#0b0d0d" stroke="#0b0d0d"></path><path d="M190 0L79 0L116 120Z" fill="#0f1010" stroke="#0f1010"></path><path d="M0 101L0 223L112 174Z" fill="#030505" stroke="#030505"></path><path d="M84 278L0 388L129 388Z" fill="#0b0d0d" stroke="#0b0d0d"></path><path d="M0 101L112 174L116 120Z" fill="#000000" stroke="#000000"></path><path d="M0 223L0 261L84 278Z" fill="#000000" stroke="#000000"></path><path d="M824 600L900 600L900 469Z" fill="#121313" stroke="#121313"></path><path d="M79 0L0 101L116 120Z" fill="#0b0d0d" stroke="#0b0d0d"></path><path d="M0 261L0 388L84 278Z" fill="#1c1d1d" stroke="#1c1d1d"></path><path d="M81 483L81 600L219 474Z" fill="#000000" stroke="#000000"></path><path d="M0 511L81 600L81 483Z" fill="#030505" stroke="#030505"></path><path d="M79 0L0 0L0 101Z" fill="#1c1d1d" stroke="#1c1d1d"></path><path d="M0 388L0 511L81 483Z" fill="#171818" stroke="#171818"></path><path d="M0 511L0 600L81 600Z" fill="#171818" stroke="#171818"></path></g></svg>