<svg id="visual" viewBox="0 0 900 600" width="900" height="600" xmlns="http://www.w3.org/2000/svg" xmlns:xlink="http://www.w3.org/1999/xlink" version="1.1"><rect x="0" y="0" width="900" height="600" fill="#242525"></rect><defs><linearGradient id="grad1_0" x1="33.3%" y1="0%" x2="100%" y2="100%"><stop offset="20%" stop-color="#16e0e7" stop-opacity="1"></stop><stop offset="80%" stop-color="#16e0e7" stop-opacity="1"></stop></linearGradient></defs><defs><linearGradient id="grad1_1" x1="33.3%" y1="0%" x2="100%" y2="100%"><stop offset="20%" stop-color="#16e0e7" stop-opacity="1"></stop><stop offset="80%" stop-color="#33adb1" stop-opacity="1"></stop></linearGradient></defs><defs><linearGradient id="grad1_2" x1="33.3%" y1="0%" x2="100%" y2="100%"><stop offset="20%" stop-color="#377c7e" stop-opacity="1"></stop><stop offset="80%" stop-color="#33adb1" stop-opacity="1"></stop></linearGradient></defs><defs><linearGradient id="grad1_3" x1="33.3%" y1="0%" x2="100%" y2="100%"><stop offset="20%" stop-color="#377c7e" stop-opacity="1"></stop><stop offset="80%" stop-color="#314f4f" stop-opacity="1"></stop></linearGradient></defs><defs><linearGradient id="grad1_4" x1="33.3%" y1="0%" x2="100%" y2="100%"><stop offset="20%" stop-color="#242525" stop-opacity="1"></stop><stop offset="80%" stop-color="#314f4f" stop-opacity="1"></stop></linearGradient></defs><defs><linearGradient id="grad2_0" x1="0%" y1="0%" x2="66.7%" y2="100%"><stop offset="20%" stop-color="#16e0e7" stop-opacity="1"></stop><stop offset="80%" stop-color="#16e0e7" stop-opacity="1"></stop></linearGradient></defs><defs><linearGradient id="grad2_1" x1="0%" y1="0%" x2="66.7%" y2="100%"><stop offset="20%" stop-color="#33adb1" stop-opacity="1"></stop><stop offset="80%" stop-color="#16e0e7" stop-opacity="1"></stop></linearGradient></defs><defs><linearGradient id="grad2_2" x1="0%" y1="0%" x2="66.7%" y2="100%"><stop offset="20%" stop-color="#33adb1" stop-opacity="1"></stop><stop offset="80%" stop-color="#377c7e" stop-opacity="1"></stop></linearGradient></defs><defs><linearGradient id="grad2_3" x1="0%" y1="0%" x2="66.7%" y2="100%"><stop offset="20%" stop-color="#314f4f" stop-opacity="1"></stop><stop offset="80%" stop-color="#377c7e" stop-opacity="1"></stop></linearGradient></defs><defs><linearGradient id="grad2_4" x1="0%" y1="0%" x2="66.7%" y2="100%"><stop offset="20%" stop-color="#314f4f" stop-opacity="1"></stop><stop offset="80%" stop-color="#242525" stop-opacity="1"></stop></linearGradient></defs><g transform="translate(900, 0)"><path d="M0 486.7C-32 445.7 -63.9 404.7 -107.4 400.9C-150.9 397 -205.9 430.3 -243.4 421.5C-280.9 412.7 -300.9 361.8 -320.3 320.3C-339.7 278.8 -358.5 246.7 -368.1 212.5C-377.6 178.3 -377.8 141.9 -396 106.1C-414.3 70.3 -450.5 35.2 -486.7 0L0 0Z" fill="#2c3939"></path><path d="M0 389.4C-25.6 356.6 -51.1 323.8 -85.9 320.7C-120.7 317.6 -164.7 344.3 -194.7 337.2C-224.7 330.2 -240.7 289.5 -256.3 256.3C-271.8 223.1 -286.8 197.4 -294.4 170C-302.1 142.6 -302.2 113.5 -316.8 84.9C-331.4 56.3 -360.4 28.1 -389.4 0L0 0Z" fill="#356566"></path><path d="M0 292C-19.2 267.4 -38.4 242.8 -64.4 240.5C-90.5 238.2 -123.5 258.2 -146 252.9C-168.5 247.6 -180.5 217.1 -192.2 192.2C-203.8 167.3 -215.1 148 -220.8 127.5C-226.5 107 -226.7 85.1 -237.6 63.7C-248.6 42.2 -270.3 21.1 -292 0L0 0Z" fill="#379497"></path><path d="M0 194.7C-12.8 178.3 -25.6 161.9 -43 160.3C-60.4 158.8 -82.3 172.1 -97.3 168.6C-112.4 165.1 -120.4 144.7 -128.1 128.1C-135.9 111.5 -143.4 98.7 -147.2 85C-151 71.3 -151.1 56.8 -158.4 42.4C-165.7 28.1 -180.2 14.1 -194.7 0L0 0Z" fill="#2bc6cc"></path><path d="M0 97.3C-6.4 89.1 -12.8 80.9 -21.5 80.2C-30.2 79.4 -41.2 86.1 -48.7 84.3C-56.2 82.5 -60.2 72.4 -64.1 64.1C-67.9 55.8 -71.7 49.3 -73.6 42.5C-75.5 35.7 -75.6 28.4 -79.2 21.2C-82.9 14.1 -90.1 7 -97.3 0L0 0Z" fill="#16e0e7"></path></g><g transform="translate(0, 600)"><path d="M0 -486.7C46.8 -490 93.7 -493.2 125.3 -467.5C156.9 -441.9 173.3 -387.3 212.5 -368.1C251.7 -348.8 313.8 -364.8 344.2 -344.2C374.5 -323.6 373.2 -266.4 389.7 -225C406.2 -183.6 440.6 -158.1 459.8 -123.2C478.9 -88.3 482.8 -44.2 486.7 0L0 0Z" fill="#2c3939"></path><path d="M0 -389.4C37.5 -392 74.9 -394.5 100.2 -374C125.5 -353.5 138.6 -309.9 170 -294.4C201.4 -279 251.1 -291.8 275.3 -275.3C299.6 -258.9 298.6 -213.1 311.8 -180C325 -146.9 352.5 -126.4 367.8 -98.6C383.1 -70.7 386.3 -35.3 389.4 0L0 0Z" fill="#356566"></path><path d="M0 -292C28.1 -294 56.2 -295.9 75.2 -280.5C94.1 -265.1 104 -232.4 127.5 -220.8C151 -209.3 188.3 -218.9 206.5 -206.5C224.7 -194.1 223.9 -159.8 233.8 -135C243.7 -110.2 264.4 -94.8 275.9 -73.9C287.4 -53 289.7 -26.5 292 0L0 0Z" fill="#379497"></path><path d="M0 -194.7C18.7 -196 37.5 -197.3 50.1 -187C62.8 -176.7 69.3 -154.9 85 -147.2C100.7 -139.5 125.5 -145.9 137.7 -137.7C149.8 -129.4 149.3 -106.6 155.9 -90C162.5 -73.4 176.3 -63.2 183.9 -49.3C191.6 -35.3 193.1 -17.7 194.7 0L0 0Z" fill="#2bc6cc"></path><path d="M0 -97.3C9.4 -98 18.7 -98.6 25.1 -93.5C31.4 -88.4 34.7 -77.5 42.5 -73.6C50.3 -69.8 62.8 -73 68.8 -68.8C74.9 -64.7 74.6 -53.3 77.9 -45C81.2 -36.7 88.1 -31.6 92 -24.6C95.8 -17.7 96.6 -8.8 97.3 0L0 0Z" fill="#16e0e7"></path></g></svg>