<svg id="visual" viewBox="0 0 900 600" width="900" height="600" xmlns="http://www.w3.org/2000/svg" xmlns:xlink="http://www.w3.org/1999/xlink" version="1.1"><rect x="0" y="0" width="900" height="600" fill="#001220"></rect><path d="M0 325L21.5 327.2C43 329.3 86 333.7 128.8 329.8C171.7 326 214.3 314 257.2 320.8C300 327.7 343 353.3 385.8 360.5C428.7 367.7 471.3 356.3 514.2 358.2C557 360 600 375 642.8 372C685.7 369 728.3 348 771.2 338C814 328 857 329 878.5 329.5L900 330L900 601L878.5 601C857 601 814 601 771.2 601C728.3 601 685.7 601 642.8 601C600 601 557 601 514.2 601C471.3 601 428.7 601 385.8 601C343 601 300 601 257.2 601C214.3 601 171.7 601 128.8 601C86 601 43 601 21.5 601L0 601Z" fill="#96aaae"></path><path d="M0 429L21.5 420.8C43 412.7 86 396.3 128.8 395C171.7 393.7 214.3 407.3 257.2 405.5C300 403.7 343 386.3 385.8 384.7C428.7 383 471.3 397 514.2 396.2C557 395.3 600 379.7 642.8 385.2C685.7 390.7 728.3 417.3 771.2 423.7C814 430 857 416 878.5 409L900 402L900 601L878.5 601C857 601 814 601 771.2 601C728.3 601 685.7 601 642.8 601C600 601 557 601 514.2 601C471.3 601 428.7 601 385.8 601C343 601 300 601 257.2 601C214.3 601 171.7 601 128.8 601C86 601 43 601 21.5 601L0 601Z" fill="#6d9aad"></path><path d="M0 437L21.5 446C43 455 86 473 128.8 471.2C171.7 469.3 214.3 447.7 257.2 440.2C300 432.7 343 439.3 385.8 442.3C428.7 445.3 471.3 444.7 514.2 440.3C557 436 600 428 642.8 430C685.7 432 728.3 444 771.2 453.5C814 463 857 470 878.5 473.5L900 477L900 601L878.5 601C857 601 814 601 771.2 601C728.3 601 685.7 601 642.8 601C600 601 557 601 514.2 601C471.3 601 428.7 601 385.8 601C343 601 300 601 257.2 601C214.3 601 171.7 601 128.8 601C86 601 43 601 21.5 601L0 601Z" fill="#4a87af"></path><path d="M0 521L21.5 520.2C43 519.3 86 517.7 128.8 508.2C171.7 498.7 214.3 481.3 257.2 478.5C300 475.7 343 487.3 385.8 494.5C428.7 501.7 471.3 504.3 514.2 502.7C557 501 600 495 642.8 492.8C685.7 490.7 728.3 492.3 771.2 497.8C814 503.3 857 512.7 878.5 517.3L900 522L900 601L878.5 601C857 601 814 601 771.2 601C728.3 601 685.7 601 642.8 601C600 601 557 601 514.2 601C471.3 601 428.7 601 385.8 601C343 601 300 601 257.2 601C214.3 601 171.7 601 128.8 601C86 601 43 601 21.5 601L0 601Z" fill="#3971b0"></path><path d="M0 531L21.5 533.2C43 535.3 86 539.7 128.8 545.5C171.7 551.3 214.3 558.7 257.2 554.7C300 550.7 343 535.3 385.8 531C428.7 526.7 471.3 533.3 514.2 536.3C557 539.3 600 538.7 642.8 540C685.7 541.3 728.3 544.7 771.2 542.2C814 539.7 857 531.3 878.5 527.2L900 523L900 601L878.5 601C857 601 814 601 771.2 601C728.3 601 685.7 601 642.8 601C600 601 557 601 514.2 601C471.3 601 428.7 601 385.8 601C343 601 300 601 257.2 601C214.3 601 171.7 601 128.8 601C86 601 43 601 21.5 601L0 601Z" fill="#4857a8"></path></svg>