<svg id="visual" viewBox="0 0 900 600" width="900" height="600" xmlns="http://www.w3.org/2000/svg" xmlns:xlink="http://www.w3.org/1999/xlink" version="1.1"><rect x="0" y="0" width="900" height="600" fill="#001220"></rect><path d="M0 377L21.5 383C43 389 86 401 128.8 398.8C171.7 396.7 214.3 380.3 257.2 384C300 387.7 343 411.3 385.8 409.3C428.7 407.3 471.3 379.7 514.2 371.3C557 363 600 374 642.8 380.5C685.7 387 728.3 389 771.2 388.5C814 388 857 385 878.5 383.5L900 382L900 601L878.5 601C857 601 814 601 771.2 601C728.3 601 685.7 601 642.8 601C600 601 557 601 514.2 601C471.3 601 428.7 601 385.8 601C343 601 300 601 257.2 601C214.3 601 171.7 601 128.8 601C86 601 43 601 21.5 601L0 601Z" fill="#fa7268"></path><path d="M0 410L21.5 407.2C43 404.3 86 398.7 128.8 409.8C171.7 421 214.3 449 257.2 449C300 449 343 421 385.8 407.5C428.7 394 471.3 395 514.2 399.3C557 403.7 600 411.3 642.8 415.5C685.7 419.7 728.3 420.3 771.2 421.8C814 423.3 857 425.7 878.5 426.8L900 428L900 601L878.5 601C857 601 814 601 771.2 601C728.3 601 685.7 601 642.8 601C600 601 557 601 514.2 601C471.3 601 428.7 601 385.8 601C343 601 300 601 257.2 601C214.3 601 171.7 601 128.8 601C86 601 43 601 21.5 601L0 601Z" fill="#ef5f67"></path><path d="M0 442L21.5 451.5C43 461 86 480 128.8 491.2C171.7 502.3 214.3 505.7 257.2 496C300 486.3 343 463.7 385.8 460.5C428.7 457.3 471.3 473.7 514.2 480.5C557 487.3 600 484.7 642.8 484.7C685.7 484.7 728.3 487.3 771.2 480.5C814 473.7 857 457.3 878.5 449.2L900 441L900 601L878.5 601C857 601 814 601 771.2 601C728.3 601 685.7 601 642.8 601C600 601 557 601 514.2 601C471.3 601 428.7 601 385.8 601C343 601 300 601 257.2 601C214.3 601 171.7 601 128.8 601C86 601 43 601 21.5 601L0 601Z" fill="#e34c67"></path><path d="M0 503L21.5 508.5C43 514 86 525 128.8 524.3C171.7 523.7 214.3 511.3 257.2 505.8C300 500.3 343 501.7 385.8 505C428.7 508.3 471.3 513.7 514.2 517C557 520.3 600 521.7 642.8 522C685.7 522.3 728.3 521.7 771.2 519.2C814 516.7 857 512.3 878.5 510.2L900 508L900 601L878.5 601C857 601 814 601 771.2 601C728.3 601 685.7 601 642.8 601C600 601 557 601 514.2 601C471.3 601 428.7 601 385.8 601C343 601 300 601 257.2 601C214.3 601 171.7 601 128.8 601C86 601 43 601 21.5 601L0 601Z" fill="#d53867"></path><path d="M0 572L21.5 570.3C43 568.7 86 565.3 128.8 561.2C171.7 557 214.3 552 257.2 552.5C300 553 343 559 385.8 562.2C428.7 565.3 471.3 565.7 514.2 559.2C557 552.7 600 539.3 642.8 540C685.7 540.7 728.3 555.3 771.2 562C814 568.7 857 567.3 878.5 566.7L900 566L900 601L878.5 601C857 601 814 601 771.2 601C728.3 601 685.7 601 642.8 601C600 601 557 601 514.2 601C471.3 601 428.7 601 385.8 601C343 601 300 601 257.2 601C214.3 601 171.7 601 128.8 601C86 601 43 601 21.5 601L0 601Z" fill="#c62368"></path></svg>