<svg id="visual" viewBox="0 0 900 600" width="900" height="600" xmlns="http://www.w3.org/2000/svg" xmlns:xlink="http://www.w3.org/1999/xlink" version="1.1"><rect x="0" y="0" width="900" height="600" fill="#242525"></rect><defs><linearGradient id="grad1_0" x1="33.3%" y1="0%" x2="100%" y2="100%"><stop offset="20%" stop-color="#7c82e5" stop-opacity="1"></stop><stop offset="80%" stop-color="#7c82e5" stop-opacity="1"></stop></linearGradient></defs><defs><linearGradient id="grad1_1" x1="33.3%" y1="0%" x2="100%" y2="100%"><stop offset="20%" stop-color="#7c82e5" stop-opacity="1"></stop><stop offset="80%" stop-color="#2473b7" stop-opacity="1"></stop></linearGradient></defs><defs><linearGradient id="grad1_2" x1="33.3%" y1="0%" x2="100%" y2="100%"><stop offset="20%" stop-color="#005c7f" stop-opacity="1"></stop><stop offset="80%" stop-color="#2473b7" stop-opacity="1"></stop></linearGradient></defs><defs><linearGradient id="grad1_3" x1="33.3%" y1="0%" x2="100%" y2="100%"><stop offset="20%" stop-color="#005c7f" stop-opacity="1"></stop><stop offset="80%" stop-color="#1a414b" stop-opacity="1"></stop></linearGradient></defs><defs><linearGradient id="grad1_4" x1="33.3%" y1="0%" x2="100%" y2="100%"><stop offset="20%" stop-color="#242525" stop-opacity="1"></stop><stop offset="80%" stop-color="#1a414b" stop-opacity="1"></stop></linearGradient></defs><defs><linearGradient id="grad2_0" x1="0%" y1="0%" x2="66.7%" y2="100%"><stop offset="20%" stop-color="#7c82e5" stop-opacity="1"></stop><stop offset="80%" stop-color="#7c82e5" stop-opacity="1"></stop></linearGradient></defs><defs><linearGradient id="grad2_1" x1="0%" y1="0%" x2="66.7%" y2="100%"><stop offset="20%" stop-color="#2473b7" stop-opacity="1"></stop><stop offset="80%" stop-color="#7c82e5" stop-opacity="1"></stop></linearGradient></defs><defs><linearGradient id="grad2_2" x1="0%" y1="0%" x2="66.7%" y2="100%"><stop offset="20%" stop-color="#2473b7" stop-opacity="1"></stop><stop offset="80%" stop-color="#005c7f" stop-opacity="1"></stop></linearGradient></defs><defs><linearGradient id="grad2_3" x1="0%" y1="0%" x2="66.7%" y2="100%"><stop offset="20%" stop-color="#1a414b" stop-opacity="1"></stop><stop offset="80%" stop-color="#005c7f" stop-opacity="1"></stop></linearGradient></defs><defs><linearGradient id="grad2_4" x1="0%" y1="0%" x2="66.7%" y2="100%"><stop offset="20%" stop-color="#1a414b" stop-opacity="1"></stop><stop offset="80%" stop-color="#242525" stop-opacity="1"></stop></linearGradient></defs><g transform="translate(900, 0)"><path d="M0 486.7C-38.4 465.2 -76.8 443.6 -114.7 427.9C-152.5 412.2 -189.9 402.4 -222 384.5C-254.1 366.6 -281 340.5 -318.2 318.2C-355.4 295.9 -402.8 277.3 -421.5 243.4C-440.3 209.4 -430.5 160.1 -436.6 117C-442.7 73.9 -464.7 36.9 -486.7 0L0 0Z" fill="#223336"></path><path d="M0 389.4C-30.7 372.1 -61.4 354.9 -91.7 342.3C-122 329.8 -151.9 322 -177.6 307.6C-203.3 293.3 -224.8 272.4 -254.6 254.6C-284.3 236.7 -322.2 221.9 -337.2 194.7C-352.3 167.5 -344.4 128.1 -349.3 93.6C-354.2 59.1 -371.8 29.5 -389.4 0L0 0Z" fill="#084f63"></path><path d="M0 292C-23 279.1 -46.1 266.2 -68.8 256.7C-91.5 247.3 -113.9 241.5 -133.2 230.7C-152.5 220 -168.6 204.3 -190.9 190.9C-213.2 177.5 -241.7 166.4 -252.9 146C-264.2 125.7 -258.3 96.1 -262 70.2C-265.6 44.3 -278.8 22.2 -292 0L0 0Z" fill="#00699b"></path><path d="M0 194.7C-15.4 186.1 -30.7 177.4 -45.9 171.2C-61 164.9 -75.9 161 -88.8 153.8C-101.7 146.6 -112.4 136.2 -127.3 127.3C-142.1 118.4 -161.1 110.9 -168.6 97.3C-176.1 83.8 -172.2 64 -174.6 46.8C-177.1 29.5 -185.9 14.8 -194.7 0L0 0Z" fill="#4f7cd0"></path><path d="M0 97.3C-7.7 93 -15.4 88.7 -22.9 85.6C-30.5 82.4 -38 80.5 -44.4 76.9C-50.8 73.3 -56.2 68.1 -63.6 63.6C-71.1 59.2 -80.6 55.5 -84.3 48.7C-88.1 41.9 -86.1 32 -87.3 23.4C-88.5 14.8 -92.9 7.4 -97.3 0L0 0Z" fill="#7c82e5"></path></g><g transform="translate(0, 600)"><path d="M0 -486.7C34.6 -456.3 69.3 -425.9 111.8 -417.3C154.3 -408.7 204.8 -421.9 229 -396.6C253.2 -371.4 251.2 -307.7 276.5 -276.5C301.8 -245.3 354.4 -246.5 393.2 -227C432 -207.5 456.9 -167.3 470.2 -126C483.5 -84.7 485.1 -42.3 486.7 0L0 0Z" fill="#223336"></path><path d="M0 -389.4C27.7 -365.1 55.4 -340.7 89.4 -333.8C123.5 -326.9 163.8 -337.5 183.2 -317.3C202.6 -297.1 200.9 -246.2 221.2 -221.2C241.4 -196.2 283.5 -197.2 314.5 -181.6C345.6 -166 365.5 -133.8 376.1 -100.8C386.8 -67.8 388.1 -33.9 389.4 0L0 0Z" fill="#084f63"></path><path d="M0 -292C20.8 -273.8 41.6 -255.5 67.1 -250.4C92.6 -245.2 122.9 -253.1 137.4 -238C151.9 -222.8 150.7 -184.6 165.9 -165.9C181.1 -147.2 212.6 -147.9 235.9 -136.2C259.2 -124.5 274.1 -100.4 282.1 -75.6C290.1 -50.8 291.1 -25.4 292 0L0 0Z" fill="#00699b"></path><path d="M0 -194.7C13.9 -182.5 27.7 -170.4 44.7 -166.9C61.7 -163.5 81.9 -168.8 91.6 -158.7C101.3 -148.6 100.5 -123.1 110.6 -110.6C120.7 -98.1 141.8 -98.6 157.3 -90.8C172.8 -83 182.8 -66.9 188.1 -50.4C193.4 -33.9 194 -16.9 194.7 0L0 0Z" fill="#4f7cd0"></path><path d="M0 -97.3C6.9 -91.3 13.9 -85.2 22.4 -83.5C30.9 -81.7 41 -84.4 45.8 -79.3C50.6 -74.3 50.2 -61.5 55.3 -55.3C60.4 -49.1 70.9 -49.3 78.6 -45.4C86.4 -41.5 91.4 -33.5 94 -25.2C96.7 -16.9 97 -8.5 97.3 0L0 0Z" fill="#7c82e5"></path></g></svg>