<svg id="visual" viewBox="0 0 900 600" width="900" height="600" xmlns="http://www.w3.org/2000/svg" xmlns:xlink="http://www.w3.org/1999/xlink" version="1.1"><rect x="0" y="0" width="900" height="600" fill="#001220"></rect><path d="M0 355L16.7 361C33.3 367 66.7 379 100 378.8C133.3 378.7 166.7 366.3 200 359.5C233.3 352.7 266.7 351.3 300 358.5C333.3 365.7 366.7 381.3 400 386.3C433.3 391.3 466.7 385.7 500 384C533.3 382.3 566.7 384.7 600 378.3C633.3 372 666.7 357 700 354.3C733.3 351.7 766.7 361.3 800 367C833.3 372.7 866.7 374.3 883.3 375.2L900 376L900 601L883.3 601C866.7 601 833.3 601 800 601C766.7 601 733.3 601 700 601C666.7 601 633.3 601 600 601C566.7 601 533.3 601 500 601C466.7 601 433.3 601 400 601C366.7 601 333.3 601 300 601C266.7 601 233.3 601 200 601C166.7 601 133.3 601 100 601C66.7 601 33.3 601 16.7 601L0 601Z" fill="#208b1d"></path><path d="M0 417L16.7 415.2C33.3 413.3 66.7 409.7 100 410C133.3 410.3 166.7 414.7 200 415.7C233.3 416.7 266.7 414.3 300 416.5C333.3 418.7 366.7 425.3 400 422.3C433.3 419.3 466.7 406.7 500 399.3C533.3 392 566.7 390 600 390.5C633.3 391 666.7 394 700 403.5C733.3 413 766.7 429 800 437.2C833.3 445.3 866.7 445.7 883.3 445.8L900 446L900 601L883.3 601C866.7 601 833.3 601 800 601C766.7 601 733.3 601 700 601C666.7 601 633.3 601 600 601C566.7 601 533.3 601 500 601C466.7 601 433.3 601 400 601C366.7 601 333.3 601 300 601C266.7 601 233.3 601 200 601C166.7 601 133.3 601 100 601C66.7 601 33.3 601 16.7 601L0 601Z" fill="#1b761d"></path><path d="M0 442L16.7 441.2C33.3 440.3 66.7 438.7 100 437.2C133.3 435.7 166.7 434.3 200 433.7C233.3 433 266.7 433 300 433.8C333.3 434.7 366.7 436.3 400 445.2C433.3 454 466.7 470 500 473C533.3 476 566.7 466 600 466.3C633.3 466.7 666.7 477.3 700 479.3C733.3 481.3 766.7 474.7 800 470.8C833.3 467 866.7 466 883.3 465.5L900 465L900 601L883.3 601C866.7 601 833.3 601 800 601C766.7 601 733.3 601 700 601C666.7 601 633.3 601 600 601C566.7 601 533.3 601 500 601C466.7 601 433.3 601 400 601C366.7 601 333.3 601 300 601C266.7 601 233.3 601 200 601C166.7 601 133.3 601 100 601C66.7 601 33.3 601 16.7 601L0 601Z" fill="#17611b"></path><path d="M0 520L16.7 519.7C33.3 519.3 66.7 518.7 100 515.3C133.3 512 166.7 506 200 506.8C233.3 507.7 266.7 515.3 300 513.5C333.3 511.7 366.7 500.3 400 501.3C433.3 502.3 466.7 515.7 500 517.2C533.3 518.7 566.7 508.3 600 507.5C633.3 506.7 666.7 515.3 700 519C733.3 522.7 766.7 521.3 800 515.8C833.3 510.3 866.7 500.7 883.3 495.8L900 491L900 601L883.3 601C866.7 601 833.3 601 800 601C766.7 601 733.3 601 700 601C666.7 601 633.3 601 600 601C566.7 601 533.3 601 500 601C466.7 601 433.3 601 400 601C366.7 601 333.3 601 300 601C266.7 601 233.3 601 200 601C166.7 601 133.3 601 100 601C66.7 601 33.3 601 16.7 601L0 601Z" fill="#144d18"></path><path d="M0 545L16.7 544.8C33.3 544.7 66.7 544.3 100 544.3C133.3 544.3 166.7 544.7 200 547.5C233.3 550.3 266.7 555.7 300 558.2C333.3 560.7 366.7 560.3 400 556.3C433.3 552.3 466.7 544.7 500 540.7C533.3 536.7 566.7 536.3 600 536C633.3 535.7 666.7 535.3 700 539.8C733.3 544.3 766.7 553.7 800 555.7C833.3 557.7 866.7 552.3 883.3 549.7L900 547L900 601L883.3 601C866.7 601 833.3 601 800 601C766.7 601 733.3 601 700 601C666.7 601 633.3 601 600 601C566.7 601 533.3 601 500 601C466.7 601 433.3 601 400 601C366.7 601 333.3 601 300 601C266.7 601 233.3 601 200 601C166.7 601 133.3 601 100 601C66.7 601 33.3 601 16.7 601L0 601Z" fill="#113a14"></path></svg>